Coordinates
version=1
nRows=10
nColumns=22
inDegrees=yes

Units are S.I. units (second, meters, Newtons, ...)
If the header above contains a line with 'inDegrees', this indicates whether rotational values are in degrees (yes) or radians (no).

endheader
time	pelvis_tilt	pelvis_list	pelvis_rotation	pelvis_tx	pelvis_ty	pelvis_tz	hip_flexion_r	hip_adduction_r	hip_rotation_r	knee_angle_r	ankle_angle_r	subtalar_angle_r	hip_flexion_l	hip_adduction_l	hip_rotation_l	knee_angle_l	ankle_angle_l	subtalar_angle_l	lumbar_extension	lumbar_bending	lumbar_rotation
      1.37000000	      2.21691403	     -4.57148124	     -4.01795348	      1.01246494	      0.91638314	      0.20239303	      5.15114532	      8.79681536	      0.63008666	    -19.44095590	      5.92148789	     -5.14551862	     10.29908067	    -10.19029840	     -7.09244783	    -32.18724096	     12.75321158	     -0.94942452	     -8.49356793	      0.09867032	      6.16384568
      1.38000000	      2.30876056	     -4.67936632	     -3.88556291	      1.01087453	      0.91569991	      0.20246347	      5.35107639	      8.91781923	      0.37876487	    -19.80204142	      6.07398595	     -5.33656947	     10.80237103	    -10.30184483	     -6.58191060	    -33.55234354	     13.08081536	     -0.46451817	     -8.61744400	      0.23791713	      6.24752617
      1.39000000	      2.45667309	     -4.78725996	     -3.79060047	      1.00938923	      0.91522124	      0.20256671	      5.42609972	      9.03565693	      0.20208762	    -20.05838926	      6.19281680	     -5.46096292	     11.16582024	    -10.41098682	     -6.14694808	    -34.96629143	     13.42308195	     -0.05289159	     -8.75037623	      0.36187325	      6.34353418
      1.40000000	      2.62259939	     -4.89739928	     -3.73611789	      1.00800702	      0.91491585	      0.20271555	      5.42721419	      9.15705573	      0.08392500	    -20.22834138	      6.25382712	     -5.54405755	     11.43393538	    -10.52856159	     -5.79374897	    -36.44818604	     13.73560537	      0.28695309	     -8.84657699	      0.47600449	      6.46339402
      1.41000000	      2.79821872	     -5.00770795	     -3.72019693	      1.00673252	      0.91477863	      0.20290560	      5.37094881	      9.27971014	      0.01858075	    -20.32569232	      6.26184648	     -5.59105695	     11.61843703	    -10.65978479	     -5.53381825	    -38.00848159	     14.00236772	      0.53307606	     -8.89463729	      0.58184421	      6.59932516
      1.42000000	      2.99311269	     -5.11758206	     -3.73353857	      1.00556926	      0.91483857	      0.20316404	      5.23181680	      9.41089807	      0.04718093	    -20.32344755	      6.23538264	     -5.59423179	     11.70045693	    -10.80025005	     -5.33925063	    -39.62609160	     14.24877141	      0.61998371	     -8.91018344	      0.67211311	      6.71455271
      1.43000000	      3.17566823	     -5.22161557	     -3.77112964	      1.00450904	      0.91504597	      0.20346590	      5.06574109	      9.54047039	      0.11998129	    -20.25836417	      6.14990448	     -5.57555460	     11.72023110	    -10.94572981	     -5.20469167	    -41.29708197	     14.40907613	      0.60128573	     -8.85782483	      0.74843608	      6.81668163
      1.44000000	      3.33916562	     -5.31016390	     -3.82345298	      1.00355729	      0.91538630	      0.20379328	      4.88058407	      9.65704989	      0.22985035	    -20.13092167	      6.01004818	     -5.53696428	     11.68017160	    -11.07831861	     -5.10681013	    -42.99182841	     14.48261013	      0.46355659	     -8.73383281	      0.80327926	      6.88810138
      1.45000000	      3.49299081	     -5.36292784	     -3.88326927	      1.00272640	      0.91587283	      0.20413856	      4.66234095	      9.73409721	      0.35078652	    -19.93390658	      5.88335435	     -5.49935625	     11.56288139	    -11.16962324	     -5.03083738	    -44.67005232	     14.40136706	      0.28475059	     -8.55371157	      0.81138043	      6.92259694
      1.46000000	      3.61006548	     -5.40606702	     -3.93476119	      1.00194542	      0.91642962	      0.20444264	      4.46328785	      9.80168442	      0.49427483	    -19.70012587	      5.62146190	     -5.45178567	     11.41275196	    -11.23176844	     -4.92576554	    -46.32697669	     14.32133624	     -0.06978467	     -8.30368327	      0.81755364	      6.89664858
